<svg width="49" height="49" viewBox="0 0 49 49" fill="none" xmlns="http://www.w3.org/2000/svg" xmlns:xlink="http://www.w3.org/1999/xlink">
<g id="Repeat group 1_inner" data-figma-trr="r5u1.5-0f">
<path d="M21.5812 39.5636C23.0297 38.1149 25.3784 38.1148 26.827 39.5634L30.1342 42.8703C31.3181 44.054 33.2373 44.054 34.4212 42.8704C35.6053 41.6865 35.6053 39.7669 34.4214 38.5829L29.4504 33.612C26.5533 30.7148 21.8561 30.7147 18.9589 33.6118L13.9873 38.5831C12.8033 39.767 12.8033 41.6865 13.9872 42.8705C15.1712 44.0544 17.0908 44.0544 18.2747 42.8704L21.5812 39.5636Z" fill="#E5E4DF"/>
</g>
<use xlink:href="#Repeat%20group%201_inner" transform="translate(-6.29483 39.7444) rotate(-72)"/>
<use xlink:href="#Repeat%20group%201_inner" transform="translate(29.5592 58.0129) rotate(-144)"/>
<use xlink:href="#Repeat%20group%201_inner" transform="translate(58.013 29.559) rotate(144)"/>
<use xlink:href="#Repeat%20group%201_inner" transform="translate(39.7444 -6.29497) rotate(72)"/>
</svg>
